<?xml version="1.0" standalone="no"?>
<!DOCTYPE svg PUBLIC "-//W3C//DTD SVG 20010904//EN" "http://www.w3.org/TR/2001/REC-SVG-20010904/DTD/svg10.dtd">
<!-- Created using Krita: https://krita.org -->
<svg xmlns="http://www.w3.org/2000/svg" 
    xmlns:xlink="http://www.w3.org/1999/xlink"
    xmlns:krita="http://krita.org/namespaces/svg/krita"
    xmlns:sodipodi="http://sodipodi.sourceforge.net/DTD/sodipodi-0.dtd"
    width="184.32pt"
    height="184.32pt"
    viewBox="0 0 184.32 184.32">
<defs/>
<path id="shape0" transform="translate(21.8912670449047, 17.8361698994801)" fill="none" stroke="#ffffff" stroke-width="1" stroke-linecap="square" stroke-linejoin="bevel" d="M0 116.211L93.0114 142.39L130.897 8.93931L34.9059 0L0 116.211" sodipodi:nodetypes="ccccc"/><path id="shape1" transform="translate(22.2114553500688, 134.332923832239)" fill="none" stroke="#ffffff" stroke-width="1" stroke-linecap="square" stroke-linejoin="bevel" d="M0 0L13.7462 7.63675L98.5685 32.1884L92.1502 26.2195L0.254558 0.254558" sodipodi:nodetypes="ccccc"/><path id="shape2" transform="translate(121.234688530174, 27.1638205704803)" fill="none" stroke="#ffffff" stroke-width="1" stroke-linecap="square" stroke-linejoin="bevel" d="M31.3107 0L35.6382 11.9642C23.7588 54.2209 11.8794 96.4776 0 138.734" sodipodi:nodetypes="ccc"/><path id="shape3" transform="translate(48.6000033771902, 28.1913683238292)" fill="none" stroke="#ffffff" stroke-width="1" stroke-linecap="square" stroke-linejoin="bevel" d="M12.6 0L88.56 8.64L74.16 56.52L0 43.2L12.6 0" sodipodi:nodetypes="ccccc"/><ellipse id="shape4" transform="translate(46.8000008678981, 85.43136620433)" rx="27.72" ry="27.36" cx="27.72" cy="27.36" fill="none" stroke="#919191" stroke-width="0.72" stroke-linecap="square" stroke-linejoin="bevel"/><path id="shape5" transform="translate(103.680000867898, 100.996061297617)" fill="none" stroke="#919191" stroke-width="0.72" stroke-linecap="square" stroke-linejoin="miter" stroke-miterlimit="2" d="M0 9.15381L26.9721 0" sodipodi:nodetypes="cc"/><path id="shape6" transform="translate(101.124570804996, 92.3307801998181)" fill="none" stroke="#919191" stroke-width="0.72" stroke-linecap="square" stroke-linejoin="miter" stroke-miterlimit="2" d="M0 12.2188L32.3289 0" sodipodi:nodetypes="cc"/><ellipse id="shape7" transform="translate(48.9400911541294, 87.2396114533921)" rx="25.4576439769799" ry="25.3858322323533" cx="25.4576439769799" cy="25.3858322323533" fill="none" stroke="#919191" stroke-width="0.72" stroke-linecap="square" stroke-linejoin="bevel"/><circle id="shape8" transform="translate(68.1529358650389, 105.08974276415)" r="6.48" cx="6.48" cy="6.48" fill="none" stroke="#919191" stroke-width="0.72" stroke-linecap="square" stroke-linejoin="bevel"/><ellipse id="shape9" transform="translate(71.100000913257, 107.841366285328)" rx="3.6" ry="3.6" cx="3.6" cy="3.6" fill="none" stroke="#919191" stroke-width="0.72" stroke-linecap="square" stroke-linejoin="bevel"/><circle id="shape10" transform="translate(83.5200008678981, 94.79136620433)" r="1.08" cx="1.08" cy="1.08" fill="none" stroke="#919191" stroke-width="0.72" stroke-linecap="square" stroke-linejoin="bevel"/><ellipse id="shape11" transform="translate(54.0000017244037, 91.9113652462051)" rx="20.5200004137358" ry="20.5200004137358" cx="20.5200004137358" cy="20.5200004137358" fill="none" stroke="#747474" stroke-width="0.72" stroke-linecap="square" stroke-linejoin="bevel"/><path id="shape12" transform="translate(103.140000845699, 102.523411941059)" fill="none" stroke="#747474" stroke-width="0.72" stroke-linecap="square" stroke-linejoin="miter" stroke-miterlimit="2" d="M0 8.71926L27.5758 0" sodipodi:nodetypes="cc"/><path id="shape13" transform="matrix(0.937488055791218 -0.348017449632638 0.348017449632638 0.937488055791218 124.572610094378 97.8292755535867)" sodipodi:type="arc" sodipodi:rx="3.00439264233682" sodipodi:ry="1.20775010796615" sodipodi:cx="3.00449153399343" sodipodi:cy="1.20782871935734" sodipodi:start="6.28318530717959" sodipodi:end="6.1543466471367" sodipodi:open="true" d="M5.98398 1.05265C5.77563 0.406177 4.32868 -0.0571799 2.71463 0.00571271C1.10058 0.0686053 -0.0980604 0.635049 0.00633063 1.28558C0.110722 1.93611 1.48047 2.43595 3.10125 2.41495C4.72202 2.39396 6.00888 1.85971 6.00888 1.20783" fill="none" stroke="#747474" stroke-width="0.72" stroke-linecap="square" stroke-linejoin="bevel"/><ellipse id="shape14" transform="matrix(1.15261551720418 0.192387417006757 -0.164636139716639 0.986354369128667 77.3953433418191 35.2102056896874)" rx="6.48" ry="8.28" cx="6.48" cy="8.28" fill="none" stroke="#ffffff" stroke-width="0.72" stroke-linecap="square" stroke-linejoin="bevel"/><ellipse id="shape0" transform="matrix(1.15261548799341 0.192387412131076 -0.164636135544259 0.986354344131455 94.1424673891361 37.9773400552638)" rx="6.48" ry="8.28" cx="6.48" cy="8.28" fill="none" stroke="#ffffff" stroke-width="0.72" stroke-linecap="square" stroke-linejoin="bevel"/><path id="shape15" transform="matrix(1.15261551720418 0.192387417006757 -0.164636139716639 0.986354369128667 111.663287958542 41.074899291824)" fill="none" stroke="#ffffff" stroke-width="0.72" stroke-linecap="square" stroke-linejoin="miter" stroke-miterlimit="2" d="M1.51177 0L0 16.6897" sodipodi:nodetypes="cc"/><path id="shape16" transform="matrix(1.15261551720418 0.192387417006757 -0.164636139716639 0.986354369128667 112.478362050674 41.6121415299403)" fill="none" stroke="#ffffff" stroke-width="0.72" stroke-linecap="square" stroke-linejoin="miter" stroke-miterlimit="2" d="M0 9.15834L7.31978 0" sodipodi:nodetypes="cc"/><path id="shape17" transform="matrix(1.15261551720418 0.192387417006757 -0.164636139716639 0.986354369128667 112.269928726 50.0881518985237)" fill="none" stroke="#ffffff" stroke-width="0.72" stroke-linecap="square" stroke-linejoin="miter" stroke-miterlimit="2" d="M0 0L5.42765 8.68003" sodipodi:nodetypes="cc"/><path id="shape18" transform="matrix(1.15261551720418 0.192387417006757 -0.164636139716639 0.986354369128667 66.4037574798118 33.5286926859402)" fill="none" stroke="#ffffff" stroke-width="0.72" stroke-linecap="square" stroke-linejoin="bevel" d="M7.3822 0C-2.43951 2.75254 -2.52436 14.5197 7.50948 16.9281" sodipodi:nodetypes="cc"/><ellipse id="shape01" transform="matrix(1.14893087090861 0.212724030493375 -0.182055379606477 0.983288278995736 74.2172558936221 54.5643149905797)" rx="6.48" ry="8.28" cx="6.48" cy="8.28" fill="none" stroke="#ffffff" stroke-width="0.72" stroke-linecap="square" stroke-linejoin="bevel"/><ellipse id="shape02" transform="matrix(1.14893084179122 0.212724025102303 -0.182055374992641 0.983288254076227 90.9113422510158 57.6269381400969)" rx="6.48" ry="8.28" cx="6.48" cy="8.28" fill="none" stroke="#ffffff" stroke-width="0.72" stroke-linecap="square" stroke-linejoin="bevel"/><path id="shape1" transform="matrix(1.14893087090861 0.212724030493375 -0.182055379606477 0.983288278995736 108.393749241223 61.5801125164679)" fill="none" stroke="#ffffff" stroke-width="0.72" stroke-linecap="square" stroke-linejoin="miter" stroke-miterlimit="2" d="M0.706587 0L0 15.8154" sodipodi:nodetypes="cc"/><path id="shape2" transform="matrix(1.14893087090861 0.212724030493375 -0.182055379606477 0.983288278995736 109.010689984155 62.4912755233296)" fill="none" stroke="#ffffff" stroke-width="0.72" stroke-linecap="square" stroke-linejoin="miter" stroke-miterlimit="2" d="M0 8.23683L6.59489 0" sodipodi:nodetypes="cc"/><path id="shape3" transform="matrix(1.14893087090861 0.212724030493375 -0.182055379606477 0.983288278995736 108.820042154489 70.0561436394765)" fill="none" stroke="#ffffff" stroke-width="0.72" stroke-linecap="square" stroke-linejoin="miter" stroke-miterlimit="2" d="M0 0L6.04827 8.08735" sodipodi:nodetypes="cc"/><path id="shape19" transform="matrix(1.15389177834634 0.183019723171896 -0.147377305171171 0.989247761091948 60.8539050446595 52.3647397628203)" fill="none" stroke="#ffffff" stroke-width="0.72" stroke-linecap="square" stroke-linejoin="bevel" d="M0 15.6433L1.47415 0.00147999C6.38841 -0.0409464 8.95238 0.828795 9.16604 2.6107C9.48653 5.28357 8.6853 8.27463 3.07663 8.33827C-2.53204 8.40191 9.56666 6.81092 9.56666 12.2203C9.56666 15.4659 8.09251 17.0434 0 15.6433Z" sodipodi:nodetypes="cczzcc"/>
</svg>
